<?xml version="1.0" encoding="UTF-8"?>
<mxfile host="app.diagrams.net">
  <diagram name="SolaceNet Fully Expanded Architecture">
    <mxGraphModel dx="2000" dy="1200" grid="1" gridSize="10" guides="1" tooltips="1" connect="1" arrows="1" fold="1" page="1" pageScale="1" pageWidth="1400" pageHeight="1000">
      <root>
        <mxCell id="0"/>
        <mxCell id="1" parent="0"/>
        <!-- Clients Layer -->
        <mxCell id="2" value="Web & Mobile Clients" style="shape=rect;rounded=1;fillColor=#fff2cc;strokeColor=#d6b656;strokeWidth=2;fontSize=12;" vertex="1" parent="1">
          <mxGeometry x="20" y="20" width="180" height="50" as="geometry"/>
        </mxCell>
        <!-- CDN, DNS & Security -->
        <mxCell id="3" value="Azure CDN + WAF" style="shape=rect;rounded=1;fillColor=#dae8fc;strokeColor=#6c8ebf;strokeWidth=2;fontSize=12;" vertex="1" parent="1">
          <mxGeometry x="240" y="20" width="180" height="50" as="geometry"/>
        </mxCell>
        <mxCell id="4" value="Azure Traffic Manager (DNS)" style="shape=rect;rounded=1;fillColor=#dae8fc;strokeColor=#6c8ebf;strokeWidth=2;fontSize=12;" vertex="1" parent="1">
          <mxGeometry x="460" y="20" width="200" height="50" as="geometry"/>
        </mxCell>
        <mxCell id="5" value="DDoS Protection" style="shape=hexagon;fillColor=#f8cecc;strokeColor=#b85450;strokeWidth=2;fontSize=12;" vertex="1" parent="1">
          <mxGeometry x="700" y="20" width="160" height="60" as="geometry"/>
        </mxCell>
        <!-- Application Layer -->
        <mxCell id="6" value="Application Gateway" style="shape=rect;rounded=1;fillColor=#d5e8d4;strokeColor=#82b366;strokeWidth=2;fontSize=12;" vertex="1" parent="1">
          <mxGeometry x="20" y="100" width="180" height="50" as="geometry"/>
        </mxCell>
        <mxCell id="7" value="Microservices" style="shape=rect;rounded=1;fillColor=#f8cecc;strokeColor=#b85450;strokeWidth=2;fontSize=12;" vertex="1" parent="1">
          <mxGeometry x="240" y="100" width="180" height="50" as="geometry"/>
        </mxCell>
        <mxCell id="8" value="Database Cluster" style="shape=rect;rounded=1;fillColor=#e1d5e7;strokeColor=#9673a6;strokeWidth=2;fontSize=12;" vertex="1" parent="1">
          <mxGeometry x="460" y="100" width="200" height="50" as="geometry"/>
        </mxCell>
        <!-- Connectors -->
        <mxCell id="9" edge="1" parent="1" source="2" target="3" style="edgeStyle=orthogonalEdgeStyle;rounded=1;strokeColor=#000000;strokeWidth=2;">
          <mxGeometry relative="1" as="geometry"/>
        </mxCell>
        <mxCell id="10" edge="1" parent="1" source="3" target="4" style="edgeStyle=orthogonalEdgeStyle;rounded=1;strokeColor=#000000;strokeWidth=2;">
          <mxGeometry relative="1" as="geometry"/>
        </mxCell>
        <mxCell id="11" edge="1" parent="1" source="4" target="5" style="edgeStyle=orthogonalEdgeStyle;rounded=1;strokeColor=#000000;strokeWidth=2;">
          <mxGeometry relative="1" as="geometry"/>
        </mxCell>
        <mxCell id="12" edge="1" parent="1" source="6" target="7" style="edgeStyle=orthogonalEdgeStyle;rounded=1;strokeColor=#000000;strokeWidth=2;">
          <mxGeometry relative="1" as="geometry"/>
        </mxCell>
        <mxCell id="13" edge="1" parent="1" source="7" target="8" style="edgeStyle=orthogonalEdgeStyle;rounded=1;strokeColor=#000000;strokeWidth=2;">
          <mxGeometry relative="1" as="geometry"/>
        </mxCell>
        <!-- Annotations -->
        <mxCell id="14" value="Data Flow" style="text;strokeColor=none;fillColor=none;fontSize=12;" vertex="1" parent="1">
          <mxGeometry x="150" y="50" width="100" height="20" as="geometry"/>
        </mxCell>
        <mxCell id="15" value="Security Layer" style="text;strokeColor=none;fillColor=none;fontSize=12;" vertex="1" parent="1">
          <mxGeometry x="500" y="50" width="100" height="20" as="geometry"/>
        </mxCell>
      </root>
    </mxGraphModel>
  </diagram>
</mxfile>